<svg xmlns="http://www.w3.org/2000/svg" width="1920" height="1080" viewBox="0 0 1920 1080" role="img" aria-labelledby="title">
<title id="title">04-41. VIA 요청 이해의 모델 주도와 코드 주도 완성 — 설계 비교</title>
<defs>
<marker id="a18232E" viewBox="0 0 10 10" refX="9" refY="5" markerWidth="8" markerHeight="8" orient="auto"><path d="M1 1L9 5L1 9" fill="none" stroke="#18232E" stroke-width="1.6"/></marker>
<marker id="a2858A5" viewBox="0 0 10 10" refX="9" refY="5" markerWidth="8" markerHeight="8" orient="auto"><path d="M1 1L9 5L1 9" fill="none" stroke="#2858A5" stroke-width="1.6"/></marker>
<marker id="aB63732" viewBox="0 0 10 10" refX="9" refY="5" markerWidth="8" markerHeight="8" orient="auto"><path d="M1 1L9 5L1 9" fill="none" stroke="#B63732" stroke-width="1.6"/></marker>
<marker id="a087E8B" viewBox="0 0 10 10" refX="9" refY="5" markerWidth="8" markerHeight="8" orient="auto"><path d="M1 1L9 5L1 9" fill="none" stroke="#087E8B" stroke-width="1.6"/></marker>
<marker id="a5F6B77" viewBox="0 0 10 10" refX="9" refY="5" markerWidth="8" markerHeight="8" orient="auto"><path d="M1 1L9 5L1 9" fill="none" stroke="#5F6B77" stroke-width="1.6"/></marker>
<marker id="a7155A4" viewBox="0 0 10 10" refX="9" refY="5" markerWidth="8" markerHeight="8" orient="auto"><path d="M1 1L9 5L1 9" fill="none" stroke="#7155A4" stroke-width="1.6"/></marker><marker id="a000000" viewBox="0 0 10 10" refX="9" refY="5" markerWidth="7" markerHeight="7" orient="auto"><path d="M1 1L9 5L1 9" fill="none" stroke="#000000" stroke-width="1.2"/></marker></defs><g font-family="Apple SD Gothic Neo, Arial, sans-serif">
<rect id="n1" fill="white" stroke="none" stroke-width="1.7" x="0" y="0" width="1920" height="1080"/>
<text id="n2-0" data-width="1300" x="40" y="39.480000000000004" text-anchor="start" font-size="19" font-weight="700" fill="#087E8B">VIA SOFTWARE ARCHITECTURE / DP 설계 비교</text>
<text id="n3-0" data-width="450" x="1880" y="39.480000000000004" text-anchor="end" font-size="19" font-weight="400" fill="#5F6B77">구조 비교 / 장단점 / QA Trade-off</text>
<text id="n4-0" data-width="1840" x="40" y="100.88" text-anchor="start" font-size="39" font-weight="700" fill="#18232E">04-41. VIA 요청 이해의 모델 주도와 코드 주도 완성</text>
<polyline id="n5" points="40,121 1880,121" fill="none" stroke="#CDD6DE" stroke-width="2"/>
<text id="n6-0" data-width="1840" x="40" y="161.16" text-anchor="start" font-size="23" font-weight="400" fill="#18232E">“이 표를 아까 보고서에 넣고, 메일은 보내지 말고 결과를 바탕으로 초안만 만들어.”</text>
<text id="n7-0" data-width="1840" x="40" y="186.48" text-anchor="start" font-size="19" font-weight="400" fill="#18232E">Task1: 예산 보고서 / Task2: 실적 보고서 → “어느 보고서인가요?” → 사용자: “예산 보고서” / 결과: 수정된 보고서 → 메일 초안</text>
<rect id="n8" fill="#D5E7C7" stroke="#CDD6DE" stroke-width="1.7" x="40" y="195" width="1840" height="48"/>
<text id="n9-0" data-width="98" x="90" y="226.48" text-anchor="middle" font-size="19" font-weight="700" fill="#18232E">설계안</text>
<text id="n10-0" data-width="838" x="575" y="228.92000000000002" text-anchor="middle" font-size="26" font-weight="700" fill="#18232E">A 모델 주도 해석</text>
<text id="n11-0" data-width="838" x="1445" y="228.92000000000002" text-anchor="middle" font-size="26" font-weight="700" fill="#18232E">B 모델 요청 틀과 코드 주도 완성</text>
<polyline id="n12" points="1010,195 1010,795" fill="none" stroke="#CDD6DE" stroke-width="2"/>
<polyline id="n13" points="40,795 1880,795" fill="none" stroke="#CDD6DE" stroke-width="2"/>
<text id="n14-0" data-width="1840" x="42" y="826.56" text-anchor="start" font-size="18" font-weight="400" fill="#18232E">공통 후속 처리: Request Controller가 현재성/권한을 검증하고 저장 후 채택한다. 이어 응답 또는 업무 위임을 진행한다.</text>
<text id="n15-0" data-width="1840" x="42" y="856.56" text-anchor="start" font-size="18" font-weight="400" fill="#18232E">반복 종료: 완성 의미 제안 / 확인 질문 대기 / 실패 / 취소 / 한도 도달. 질문 답변 뒤 다시 해석한다. 무한 반복을 허용하지 않는다.</text>
<polyline id="n16" points="40,875 1880,875" fill="none" stroke="#CDD6DE" stroke-width="2"/>
<text id="n17-0" data-width="245" x="42" y="899.56" text-anchor="start" font-size="18" font-weight="700" fill="#18232E">정확성 / 지원 범위</text>
<text id="n18-0" data-width="720" x="300" y="899.56" text-anchor="start" font-size="18" font-weight="400" fill="#18232E">열린 의미를 함께 판단 / 검색 누락과 모델 오판 가능</text>
<text id="n19-0" data-width="820" x="1050" y="899.56" text-anchor="start" font-size="18" font-weight="400" fill="#18232E">지원 관계의 코드 결합 / 틀 오류와 표현 밖 관계의 한계</text>
<polyline id="n20" points="40,909 1880,909" fill="none" stroke="#CDD6DE" stroke-width="2"/>
<text id="n21-0" data-width="245" x="42" y="933.56" text-anchor="start" font-size="18" font-weight="700" fill="#18232E">응답성</text>
<text id="n22-0" data-width="720" x="300" y="933.56" text-anchor="start" font-size="18" font-weight="400" fill="#18232E">조회 후 재판단마다 클라우드 왕복 / 부분 수정 허용</text>
<text id="n23-0" data-width="820" x="1050" y="933.56" text-anchor="start" font-size="18" font-weight="400" fill="#18232E">지원 틀이 충분하면 재판단 축소 / 추가 해석과 질문 대기</text>
<polyline id="n24" points="40,943 1880,943" fill="none" stroke="#CDD6DE" stroke-width="2"/>
<text id="n25-0" data-width="245" x="42" y="967.56" text-anchor="start" font-size="18" font-weight="700" fill="#18232E">모델 호출 비용</text>
<text id="n26-0" data-width="720" x="300" y="967.56" text-anchor="start" font-size="18" font-weight="400" fill="#18232E">반복 해석과 긴 Context가 비용 증가 요인</text>
<text id="n27-0" data-width="820" x="1050" y="967.56" text-anchor="start" font-size="18" font-weight="400" fill="#18232E">초기 틀 + 필요한 부분 해석 / 항상 1회라는 전제 없음</text>
<polyline id="n28" points="40,977 1880,977" fill="none" stroke="#CDD6DE" stroke-width="2"/>
<text id="n29-0" data-width="245" x="42" y="1001.56" text-anchor="start" font-size="18" font-weight="700" fill="#18232E">변경 용이성</text>
<text id="n30-0" data-width="720" x="300" y="1001.56" text-anchor="start" font-size="18" font-weight="400" fill="#18232E">새 관계는 모델 지침/조회 도구 변경 가능</text>
<text id="n31-0" data-width="820" x="1050" y="1001.56" text-anchor="start" font-size="18" font-weight="400" fill="#18232E">요청 틀과 코드 규칙 확장 / 기존 지원 관계는 코드 제어</text>
<text id="n32-0" data-width="1840" x="40" y="1047.64" text-anchor="start" font-size="17" font-weight="400" fill="#18232E">미선정 / 미측정. B도 부분 의미 판단을 다시 호출할 수 있다. 새 관계의 지원 범위와 질문 비용을 함께 비교한다.</text>
<text id="n33-0" data-width="1840" x="40" y="1072.88" text-anchor="start" font-size="14" font-weight="400" fill="#5F6B77">A도 정해진 형식으로 출력 가능 / B도 추가 모델 호출 가능 / 코드로 연결했다고 의미가 항상 옳은 것은 아님 / 품질/비용은 측정 전 가설</text>
<rect id="n34" fill="white" stroke="#000000" stroke-width="1.0" x="47" y="342" width="86" height="447"/>
<text id="n35-0" data-width="82" x="90" y="364.8" text-anchor="middle" font-size="15" font-weight="700" fill="#000000">Legend</text>
<rect id="n36" fill="white" stroke="#000000" stroke-width="1.0" x="53" y="379" width="74" height="27"/>
<text id="n37-0" data-width="56" x="90.0" y="395.2" text-anchor="middle" font-size="10" font-weight="700" fill="#000000">Component</text>
<text id="n38-0" data-width="76" x="54" y="420.04" text-anchor="start" font-size="12" font-weight="400" fill="#000000">논리 책임</text>
<rect id="n39" fill="white" stroke="#000000" stroke-width="1.0" x="53" y="438" width="74" height="27" rx="7"/>
<text id="n40-0" data-width="56" x="90.0" y="454.2" text-anchor="middle" font-size="10" font-weight="700" fill="#000000">Module</text>
<text id="n41-0" data-width="76" x="54" y="479.04" text-anchor="start" font-size="12" font-weight="400" fill="#000000">내부 구현</text>
<path id="n42" fill="white" stroke="#000000" stroke-width="1.0" d="M53 497H109L127 515V524H53Z M109 497V515H127"/>
<text id="n43-0" data-width="70" x="90" y="513.2" text-anchor="middle" font-size="10" font-weight="400" fill="#000000">Data</text>
<text id="n44-0" data-width="76" x="54" y="538.04" text-anchor="start" font-size="12" font-weight="400" fill="#000000">교환 예시</text>
<polygon id="n45" points="90.0,552 127,565.5 90.0,579 53,565.5" fill="white" stroke="#000000" stroke-width="1"/>
<text id="n46-0" data-width="56" x="90.0" y="568.2" text-anchor="middle" font-size="10" font-weight="700" fill="#000000">분기</text>
<text id="n47-0" data-width="76" x="54" y="593.04" text-anchor="start" font-size="12" font-weight="400" fill="#000000">흐름 판단</text>
<rect id="n48" fill="#FFF0DD" stroke="#B8753F" stroke-width="1.0" x="53" y="721" width="74" height="27" rx="7"/>
<text id="n49-0" data-width="56" x="90.0" y="737.2" text-anchor="middle" font-size="10" font-weight="700" fill="#000000">Module</text>
<text id="n50-0" data-width="76" x="54" y="762.04" text-anchor="start" font-size="12" font-weight="400" fill="#000000">차이: 살구색</text>
<polygon id="n51" points="62,607 118,607 127,620.5 118,634 62,634 53,620.5" fill="white" stroke="#000000" stroke-width="1"/>
<text id="n52-0" data-width="56" x="90.0" y="623.2" text-anchor="middle" font-size="10" font-weight="700" fill="#000000">LLM</text>
<text id="n53-0" data-width="76" x="54" y="647.04" text-anchor="start" font-size="12" font-weight="400" fill="#000000">외부 모델</text>
<polyline id="n54" points="54,662 95,662" fill="none" stroke="#000000" stroke-width="1.1" marker-end="url(#a000000)"/>
<text id="n55-0" data-width="30" x="101" y="664.2" text-anchor="start" font-size="10" font-weight="400" fill="#000000">요청</text>
<polyline id="n56" points="54,688 95,688" fill="none" stroke="#000000" stroke-width="1.1" stroke-dasharray="7 6" marker-end="url(#a000000)"/>
<text id="n57-0" data-width="30" x="101" y="690.2" text-anchor="start" font-size="10" font-weight="400" fill="#000000">반환</text>
<text id="n58-0" data-width="76" x="54" y="780.2" text-anchor="start" font-size="10" font-weight="400" fill="#000000">공통: 검정</text>
<rect id="n61" fill="white" stroke="#000000" stroke-width="1.0" x="350" y="253" width="240" height="35"/>
<text id="n62-0" data-width="222" x="470.0" y="275.36" text-anchor="middle" font-size="18" font-weight="700" fill="#000000">Interaction Manager</text>
<rect id="n63" fill="white" stroke="#000000" stroke-width="1.0" x="635" y="253" width="250" height="35"/>
<text id="n64-0" data-width="232" x="760.0" y="275.36" text-anchor="middle" font-size="18" font-weight="700" fill="#000000">Request Controller</text>
<polyline id="n65" points="315,270.5 350,270.5" fill="none" stroke="#000000" stroke-width="1.1" marker-end="url(#a000000)"/>
<polyline id="n66" points="590,270.5 635,270.5" fill="none" stroke="#000000" stroke-width="1.1" marker-end="url(#a000000)"/>
<rect id="n67" fill="white" stroke="#000000" stroke-width="1.0" x="155" y="342" width="835" height="390"/>
<text id="n68-0" data-width="809" x="168" y="371.32" text-anchor="start" font-size="21" font-weight="700" fill="#000000">Request Interpreter</text>
<polyline id="n69" points="760.0,288 760,335 762.5,335 762.5,342" fill="none" stroke="#000000" stroke-width="1.1" marker-end="url(#a000000)"/>
<polygon id="n72" points="184,301 416,301 425,317.0 416,333 184,333 175,317.0" fill="white" stroke="#000000" stroke-width="1"/>
<text id="n73-0" data-width="232" x="300.0" y="322.4" text-anchor="middle" font-size="20" font-weight="700" fill="#000000">클라우드 LLM</text>
<rect id="n78" fill="#FFF0DD" stroke="#B8753F" stroke-width="1.8" x="175" y="412" width="245" height="44" rx="7"/>
<text id="n79-0" data-width="227" x="297.5" y="439.13" text-anchor="middle" font-size="19" font-weight="700" fill="#000000">모델 주도 해석 제어기</text>
<polygon id="n80" points="553.5,406 641,434.0 553.5,462 466,434.0" fill="white" stroke="#000000" stroke-width="1"/>
<text id="n81-0" data-width="157" x="553.5" y="438.86" text-anchor="middle" font-size="18" font-weight="700" fill="#000000">다음 행동?</text>
<rect id="n82" fill="white" stroke="#000000" stroke-width="1.0" x="750" y="412" width="210" height="44" rx="7"/>
<text id="n83-0" data-width="192" x="855.0" y="438.86" text-anchor="middle" font-size="18" font-weight="700" fill="#000000">읽기 도구 실행기</text>
<polyline id="n84" points="420,434.0 466,434.0" fill="none" stroke="#000000" stroke-width="1.1" marker-end="url(#a000000)"/>
<polyline id="n85" points="641,434.0 750,434.0" fill="none" stroke="#000000" stroke-width="1.1" marker-end="url(#a000000)"/>
<polyline id="n92" points="855.0,456 855,615 297.5,615 297.5,456" fill="none" stroke="#000000" stroke-width="1.1" stroke-dasharray="7 6" marker-end="url(#a000000)"/>
<rect id="n97" fill="white" stroke="#000000" stroke-width="1.0" x="750" y="664" width="210" height="37" rx="7"/>
<text id="n98-0" data-width="192" x="855.0" y="687.09" text-anchor="middle" font-size="17" font-weight="700" fill="#000000">의미 제안 검증기</text>
<polyline id="n99" points="553.5,462 553.5,474 730,474 730,682.5 750,682.5" fill="none" stroke="#000000" stroke-width="1.1" marker-end="url(#a000000)"/>
<rect id="n104" fill="white" stroke="#000000" stroke-width="1.0" x="458" y="759" width="230" height="30"/>
<text id="n105-0" data-width="212" x="573.0" y="778.8599999999999" text-anchor="middle" font-size="18" font-weight="700" fill="#000000">Context Manager</text>
<polyline id="n106" points="960,427.0 994,427.0 994,739 573.0,739 573.0,759" fill="none" stroke="#000000" stroke-width="1.1" marker-end="url(#a000000)"/>
<polyline id="n107" points="582.0,759 582.0,743 986,743 986,442.0 960,442.0" fill="none" stroke="#000000" stroke-width="1.1" stroke-dasharray="7 6" marker-end="url(#a000000)"/>
<rect id="n108" fill="white" stroke="#000000" stroke-width="1.0" x="745" y="759" width="230" height="30"/>
<text id="n109-0" data-width="212" x="860.0" y="778.8599999999999" text-anchor="middle" font-size="18" font-weight="700" fill="#000000">Task Manager</text>
<polyline id="n110" points="960,427.0 994,427.0 994,744 860.0,744 860.0,759" fill="none" stroke="#000000" stroke-width="1.1" marker-end="url(#a000000)"/>
<polyline id="n111" points="869.0,759 869.0,748 986,748 986,442.0 960,442.0" fill="none" stroke="#000000" stroke-width="1.1" stroke-dasharray="7 6" marker-end="url(#a000000)"/>
<polyline id="n114" points="175,434.0 160,434.0 160,317 175,317.0" fill="none" stroke="#000000" stroke-width="1.1" marker-end="url(#a000000)"/>
<polyline id="n115" points="175,317.0 150,317 150,446.0 175,446.0" fill="none" stroke="#000000" stroke-width="1.1" stroke-dasharray="7 6" marker-end="url(#a000000)"/>
<path id="n59" fill="white" stroke="#000000" stroke-width="1.0" d="M165 253H297L315 271V288H165Z M297 253V271H315"/>
<text id="n60-0" data-width="120" x="177" y="275.72" text-anchor="start" font-size="16" font-weight="400" fill="#000000">사용자 발화</text>
<rect id="n70" fill="white" stroke="none" stroke-width="1.7" x="778" y="309" width="85.86" height="22.4"/>
<text id="n71-0" data-width="175" x="780" y="325.64" text-anchor="start" font-size="17" font-weight="400" fill="#000000">해석 시작</text>
<rect id="n74" fill="white" stroke="none" stroke-width="1.7" x="446" y="307" width="214.04" height="22.4"/>
<text id="n75-0" data-width="305" x="448" y="323.64" text-anchor="start" font-size="17" font-weight="400" fill="#000000">Model Access 경유 호출</text>
<rect id="n76" fill="white" stroke="none" stroke-width="1.7" x="173" y="376" width="478.8" height="26.0"/>
<text id="n77-0" data-width="790" x="175" y="395.4" text-anchor="start" font-size="20" font-weight="400" fill="#000000">A 반복: 모델 판단 → 조회 → 근거로 모델 재판단</text>
<rect id="n86" fill="white" stroke="none" stroke-width="1.7" x="664" y="409" width="42" height="22.4"/>
<text id="n87-0" data-width="75" x="666" y="425.64" text-anchor="start" font-size="17" font-weight="400" fill="#000000">조회</text>
<path id="n88" fill="white" stroke="#000000" stroke-width="1.0" d="M462 481H699L717 499V550H462Z M699 481V499H717"/>
<text id="n89-0" data-width="225" x="474" y="502.8" text-anchor="start" font-size="15" font-weight="400" fill="#000000">조회 요청 (ReadRequest)</text>
<text id="n89-1" data-width="225" x="474" y="520.8" text-anchor="start" font-size="15" font-weight="400" fill="#000000">“아까 보고서” 업무 조회</text>
<text id="n89-2" data-width="225" x="474" y="538.8" text-anchor="start" font-size="15" font-weight="400" fill="#000000">“이 표” 화면 조회</text>
<path id="n90" fill="white" stroke="#000000" stroke-width="1.0" d="M750 481H942L960 499V571H750Z M942 481V499H960"/>
<text id="n91-0" data-width="180" x="762" y="501.88" text-anchor="start" font-size="14" font-weight="400" fill="#000000">조회 결과 (EvidenceBundle)</text>
<text id="n91-1" data-width="180" x="762" y="518.68" text-anchor="start" font-size="14" font-weight="400" fill="#000000">Task1: 예산 보고서</text>
<text id="n91-2" data-width="180" x="762" y="535.48" text-anchor="start" font-size="14" font-weight="400" fill="#000000">Task2: 실적 보고서</text>
<text id="n91-3" data-width="180" x="762" y="552.28" text-anchor="start" font-size="14" font-weight="400" fill="#000000">자료: 선택한 표</text>
<rect id="n93" fill="white" stroke="none" stroke-width="1.7" x="173" y="490" width="219.32" height="23.599999999999998"/>
<text id="n94-0" data-width="268" x="175" y="507.56" text-anchor="start" font-size="18" font-weight="400" fill="#000000">모델이 다음 행동을 선택</text>
<rect id="n95" fill="white" stroke="none" stroke-width="1.7" x="318" y="589" width="400.4" height="23.599999999999998"/>
<text id="n96-0" data-width="450" x="320" y="606.56" text-anchor="start" font-size="18" font-weight="400" fill="#000000">조회 결과 → 다시 모델 판단 → 필요하면 반복</text>
<rect id="n100" fill="white" stroke="none" stroke-width="1.7" x="468" y="616" width="223.68" height="21.2"/>
<text id="n101-0" data-width="260" x="470" y="631.72" text-anchor="start" font-size="16" font-weight="400" fill="#000000">완성 의미 / 확인 질문 제안</text>
<path id="n102" fill="white" stroke="#000000" stroke-width="1.0" d="M175 642H687L705 660V711H175Z M687 642V660H705"/>
<text id="n103-0" data-width="500" x="187" y="663.8" text-anchor="start" font-size="15" font-weight="400" fill="#000000">모델이 만든 의미 제안 (MeaningProposal)</text>
<text id="n103-1" data-width="500" x="187" y="681.8" text-anchor="start" font-size="15" font-weight="400" fill="#000000">예산 보고서(Task1)에 선택한 표 추가</text>
<text id="n103-2" data-width="500" x="187" y="699.8" text-anchor="start" font-size="15" font-weight="400" fill="#000000">수정된 보고서 결과 → 메일 초안 / 메일 발송 금지</text>
<rect id="n112" fill="white" stroke="none" stroke-width="1.7" x="173" y="758" width="223.68" height="21.2"/>
<text id="n113-0" data-width="260" x="175" y="773.72" text-anchor="start" font-size="16" font-weight="400" fill="#000000">화면/대화 / 업무 기록 조회</text>
<rect id="n118" fill="white" stroke="#000000" stroke-width="1.0" x="1220" y="253" width="240" height="35"/>
<text id="n119-0" data-width="222" x="1340.0" y="275.36" text-anchor="middle" font-size="18" font-weight="700" fill="#000000">Interaction Manager</text>
<rect id="n120" fill="white" stroke="#000000" stroke-width="1.0" x="1505" y="253" width="250" height="35"/>
<text id="n121-0" data-width="232" x="1630.0" y="275.36" text-anchor="middle" font-size="18" font-weight="700" fill="#000000">Request Controller</text>
<polyline id="n122" points="1185,270.5 1220,270.5" fill="none" stroke="#000000" stroke-width="1.1" marker-end="url(#a000000)"/>
<polyline id="n123" points="1460,270.5 1505,270.5" fill="none" stroke="#000000" stroke-width="1.1" marker-end="url(#a000000)"/>
<rect id="n124" fill="white" stroke="#000000" stroke-width="1.0" x="1025" y="342" width="835" height="390"/>
<text id="n125-0" data-width="809" x="1038" y="371.32" text-anchor="start" font-size="21" font-weight="700" fill="#000000">Request Interpreter</text>
<polyline id="n126" points="1630.0,288 1630,335 1632.5,335 1632.5,342" fill="none" stroke="#000000" stroke-width="1.1" marker-end="url(#a000000)"/>
<polygon id="n129" points="1054,301 1286,301 1295,317.0 1286,333 1054,333 1045,317.0" fill="white" stroke="#000000" stroke-width="1"/>
<text id="n130-0" data-width="232" x="1170.0" y="322.4" text-anchor="middle" font-size="20" font-weight="700" fill="#000000">클라우드 LLM</text>
<rect id="n135" fill="#FFF0DD" stroke="#B8753F" stroke-width="1.8" x="1045" y="412" width="245" height="44" rx="7"/>
<text id="n136-0" data-width="227" x="1167.5" y="439.13" text-anchor="middle" font-size="19" font-weight="700" fill="#000000">요청 틀 해석기</text>
<rect id="n137" fill="#FFF0DD" stroke="#B8753F" stroke-width="1.8" x="1350" y="412" width="300" height="44" rx="7"/>
<text id="n138-0" data-width="282" x="1500.0" y="438.86" text-anchor="middle" font-size="18" font-weight="700" fill="#000000">Request Resolution Engine</text>
<rect id="n139" fill="white" stroke="#000000" stroke-width="1.0" x="1670" y="491" width="170" height="44" rx="7"/>
<text id="n140-0" data-width="152" x="1755.0" y="517.05" text-anchor="middle" font-size="15" font-weight="700" fill="#000000">읽기 도구 실행기</text>
<polygon id="n141" points="1435.0,480 1520,513.0 1435.0,546 1350,513.0" fill="white" stroke="#000000" stroke-width="1"/>
<text id="n142-0" data-width="152" x="1435.0" y="517.86" text-anchor="middle" font-size="18" font-weight="700" fill="#000000">다음 처리?</text>
<polyline id="n143" points="1290,426.0 1350,426.0" fill="none" stroke="#000000" stroke-width="1.1" marker-end="url(#a000000)"/>
<polyline id="n144" points="1500.0,456 1500,470 1435,470 1435.0,480" fill="none" stroke="#000000" stroke-width="1.1" marker-end="url(#a000000)"/>
<polyline id="n145" points="1520,513.0 1670,513.0" fill="none" stroke="#000000" stroke-width="1.1" marker-end="url(#a000000)"/>
<polyline id="n148" points="1840,513.0 1852,513 1852,635 1660,635 1660,444 1650,444.0" fill="none" stroke="#000000" stroke-width="1.1" stroke-dasharray="7 6" marker-end="url(#a000000)"/>
<polyline id="n157" points="1350,444.0 1330,444 1330,470 1305,470 1305,444 1290,444.0" fill="none" stroke="#000000" stroke-width="1.1" marker-end="url(#a000000)"/>
<rect id="n162" fill="white" stroke="#000000" stroke-width="1.0" x="1620" y="664" width="210" height="37" rx="7"/>
<text id="n163-0" data-width="192" x="1725.0" y="687.09" text-anchor="middle" font-size="17" font-weight="700" fill="#000000">의미 제안 검증기</text>
<polyline id="n164" points="1435.0,546 1435,548 1655,548 1655,644 1725,644 1725.0,664" fill="none" stroke="#000000" stroke-width="1.1" marker-end="url(#a000000)"/>
<rect id="n169" fill="white" stroke="#000000" stroke-width="1.0" x="1328" y="759" width="230" height="30"/>
<text id="n170-0" data-width="212" x="1443.0" y="778.8599999999999" text-anchor="middle" font-size="18" font-weight="700" fill="#000000">Context Manager</text>
<polyline id="n171" points="1840,506.0 1864,506.0 1864,739 1443.0,739 1443.0,759" fill="none" stroke="#000000" stroke-width="1.1" marker-end="url(#a000000)"/>
<polyline id="n172" points="1452.0,759 1452.0,743 1856,743 1856,521.0 1840,521.0" fill="none" stroke="#000000" stroke-width="1.1" stroke-dasharray="7 6" marker-end="url(#a000000)"/>
<rect id="n173" fill="white" stroke="#000000" stroke-width="1.0" x="1615" y="759" width="230" height="30"/>
<text id="n174-0" data-width="212" x="1730.0" y="778.8599999999999" text-anchor="middle" font-size="18" font-weight="700" fill="#000000">Task Manager</text>
<polyline id="n175" points="1840,506.0 1864,506.0 1864,744 1730.0,744 1730.0,759" fill="none" stroke="#000000" stroke-width="1.1" marker-end="url(#a000000)"/>
<polyline id="n176" points="1739.0,759 1739.0,748 1856,748 1856,521.0 1840,521.0" fill="none" stroke="#000000" stroke-width="1.1" stroke-dasharray="7 6" marker-end="url(#a000000)"/>
<polyline id="n179" points="1045,434.0 1030,434.0 1030,317 1045,317.0" fill="none" stroke="#000000" stroke-width="1.1" marker-end="url(#a000000)"/>
<polyline id="n180" points="1045,317.0 1020,317 1020,446.0 1045,446.0" fill="none" stroke="#000000" stroke-width="1.1" stroke-dasharray="7 6" marker-end="url(#a000000)"/>
<path id="n116" fill="white" stroke="#000000" stroke-width="1.0" d="M1035 253H1167L1185 271V288H1035Z M1167 253V271H1185"/>
<text id="n117-0" data-width="120" x="1047" y="275.72" text-anchor="start" font-size="16" font-weight="400" fill="#000000">사용자 발화</text>
<rect id="n127" fill="white" stroke="none" stroke-width="1.7" x="1648" y="309" width="85.86" height="22.4"/>
<text id="n128-0" data-width="175" x="1650" y="325.64" text-anchor="start" font-size="17" font-weight="400" fill="#000000">해석 시작</text>
<rect id="n131" fill="white" stroke="none" stroke-width="1.7" x="1316" y="307" width="214.04" height="22.4"/>
<text id="n132-0" data-width="305" x="1318" y="323.64" text-anchor="start" font-size="17" font-weight="400" fill="#000000">Model Access 경유 호출</text>
<rect id="n133" fill="white" stroke="none" stroke-width="1.7" x="1043" y="376" width="556.34" height="24.8"/>
<text id="n134-0" data-width="790" x="1045" y="394.48" text-anchor="start" font-size="19" font-weight="400" fill="#000000">B 반복: 코드가 항목 검사 → 조회 / 부분 해석 → 다시 검사</text>
<rect id="n146" fill="white" stroke="none" stroke-width="1.7" x="1549" y="488" width="42" height="22.4"/>
<text id="n147-0" data-width="92" x="1551" y="504.64" text-anchor="start" font-size="17" font-weight="400" fill="#000000">조회</text>
<path id="n149" fill="white" stroke="#000000" stroke-width="1.0" d="M1045 481H1282L1300 499V575H1045Z M1282 481V499H1300"/>
<text id="n150-0" data-width="225" x="1057" y="502.8" text-anchor="start" font-size="15" font-weight="400" fill="#000000">요청 틀 (RequestFrame)</text>
<text id="n150-1" data-width="225" x="1057" y="520.8" text-anchor="start" font-size="15" font-weight="400" fill="#000000">목표: 표 추가 + 메일 초안</text>
<text id="n150-2" data-width="225" x="1057" y="538.8" text-anchor="start" font-size="15" font-weight="400" fill="#000000">표 / 보고서: 아직 미확정</text>
<text id="n150-3" data-width="225" x="1057" y="556.8" text-anchor="start" font-size="15" font-weight="400" fill="#000000">보고서 결과 → 메일 / 발송 금지</text>
<path id="n151" fill="white" stroke="#000000" stroke-width="1.0" d="M1350 553H1617L1635 571V614H1350Z M1617 553V571H1635"/>
<text id="n152-0" data-width="255" x="1362" y="573.88" text-anchor="start" font-size="14" font-weight="400" fill="#000000">코드가 관리하는 해결 상태</text>
<text id="n152-1" data-width="255" x="1362" y="590.68" text-anchor="start" font-size="14" font-weight="400" fill="#000000">보고서 후보: Task1 / Task2</text>
<text id="n152-2" data-width="255" x="1362" y="607.48" text-anchor="start" font-size="14" font-weight="400" fill="#000000">답변 뒤 Task1로 연결</text>
<rect id="n153" fill="white" stroke="none" stroke-width="1.7" x="1668" y="617" width="149.7" height="17.6"/>
<text id="n154-0" data-width="177" x="1670" y="629.96" text-anchor="start" font-size="13" font-weight="400" fill="#000000">결과 반영 → 코드 검사</text>
<path id="n155" fill="white" stroke="#000000" stroke-width="1.0" d="M1670 552H1822L1840 570V613H1670Z M1822 552V570H1840"/>
<text id="n156-0" data-width="140" x="1682" y="572.88" text-anchor="start" font-size="14" font-weight="400" fill="#000000">조회 결과</text>
<text id="n156-1" data-width="140" x="1682" y="589.68" text-anchor="start" font-size="14" font-weight="400" fill="#000000">Task1 / Task2</text>
<text id="n156-2" data-width="140" x="1682" y="606.48" text-anchor="start" font-size="14" font-weight="400" fill="#000000">선택한 표</text>
<rect id="n158" fill="white" stroke="none" stroke-width="1.7" x="1340" y="452" width="264.96" height="21.2"/>
<text id="n159-0" data-width="310" x="1342" y="467.72" text-anchor="start" font-size="16" font-weight="400" fill="#000000">항목 해석이 필요하면 LLM 재호출</text>
<path id="n160" fill="white" stroke="#000000" stroke-width="1.0" d="M1045 588H1282L1300 606V634H1045Z M1282 588V606H1300"/>
<text id="n161-0" data-width="225" x="1057" y="608.88" text-anchor="start" font-size="14" font-weight="400" fill="#000000">부분 해석 결과 → 코드에 반환</text>
<text id="n161-1" data-width="225" x="1057" y="625.68" text-anchor="start" font-size="14" font-weight="400" fill="#000000">코드가 다시 항목 검사 / 전체 결합</text>
<rect id="n165" fill="white" stroke="none" stroke-width="1.7" x="1348" y="616" width="223.68" height="21.2"/>
<text id="n166-0" data-width="300" x="1350" y="631.72" text-anchor="start" font-size="16" font-weight="400" fill="#000000">완성 의미 / 확인 질문 제안</text>
<path id="n167" fill="white" stroke="#000000" stroke-width="1.0" d="M1045 642H1557L1575 660V711H1045Z M1557 642V660H1575"/>
<text id="n168-0" data-width="500" x="1057" y="663.8" text-anchor="start" font-size="15" font-weight="400" fill="#000000">코드가 만든 의미 제안 (MeaningProposal)</text>
<text id="n168-1" data-width="500" x="1057" y="681.8" text-anchor="start" font-size="15" font-weight="400" fill="#000000">예산 보고서(Task1)에 선택한 표 추가</text>
<text id="n168-2" data-width="500" x="1057" y="699.8" text-anchor="start" font-size="15" font-weight="400" fill="#000000">수정된 보고서 결과 → 메일 초안 / 메일 발송 금지</text>
<rect id="n177" fill="white" stroke="none" stroke-width="1.7" x="1043" y="758" width="223.68" height="21.2"/>
<text id="n178-0" data-width="260" x="1045" y="773.72" text-anchor="start" font-size="16" font-weight="400" fill="#000000">화면/대화 / 업무 기록 조회</text>
</g></svg>
