<svg xmlns="http://www.w3.org/2000/svg" width="2560" height="1440" viewBox="0 0 2560 1440" role="img" aria-labelledby="title">
<title id="title">46 발화 시각과 관측, 전사 도착과 근거 준비</title>
<defs><marker id="arrow" viewBox="0 0 10 10" refX="9" refY="5" markerWidth="7" markerHeight="7" orient="auto-start-reverse"><path d="M1 1L9 5L1 9" fill="none" stroke="#333" stroke-width="1.2"/></marker></defs>
<rect width="2560" height="1440" fill="white"/>
<g font-family="Apple SD Gothic Neo, Arial, sans-serif" fill="#111">
<path d="M40,205H592L610,223V290H40Z M592,205V223H610" fill="#FFFFFF" stroke="#222222" stroke-width="1.6"/>
<text x="325.0" y="241.2" data-width="546" font-size="21" font-weight="400" text-anchor="middle">E1  t=100.0~100.6</text>
<text x="325.0" y="268.5" data-width="546" font-size="21" font-weight="400" text-anchor="middle">“이 표와” / audio sample range</text>
<path d="M650,205H1202L1220,223V290H650Z M1202,205V223H1220" fill="#FFFFFF" stroke="#222222" stroke-width="1.6"/>
<text x="935.0" y="241.2" data-width="546" font-size="21" font-weight="400" text-anchor="middle">S1 / P1  t=100.0~100.7</text>
<text x="935.0" y="268.5" data-width="546" font-size="21" font-weight="400" text-anchor="middle">window A / viewport v1 / pointer path</text>
<path d="M1260,205H1812L1830,223V290H1260Z M1812,205V223H1830" fill="#FFFFFF" stroke="#222222" stroke-width="1.6"/>
<text x="1545.0" y="241.2" data-width="546" font-size="21" font-weight="400" text-anchor="middle">t=101.2  provisional r0</text>
<text x="1545.0" y="268.5" data-width="546" font-size="21" font-weight="400" text-anchor="middle">수신 시각은 E1 발화 시각이 아님</text>
<path d="M1870,205H2422L2440,223V290H1870Z M2422,205V223H2440" fill="#FFFFFF" stroke="#222222" stroke-width="1.6"/>
<text x="2155.0" y="241.2" data-width="546" font-size="21" font-weight="400" text-anchor="middle">W46 / input ID / clock epoch</text>
<text x="2155.0" y="268.5" data-width="546" font-size="21" font-weight="400" text-anchor="middle">S1/P1 원본 refs와 capture interval</text>
<path d="M40,347H592L610,365V432H40Z M592,347V365H610" fill="#FFFFFF" stroke="#222222" stroke-width="1.6"/>
<text x="325.0" y="383.2" data-width="546" font-size="21" font-weight="400" text-anchor="middle">E2  t=100.8~101.5</text>
<text x="325.0" y="410.5" data-width="546" font-size="21" font-weight="400" text-anchor="middle">“저 표를 아까 설명한 기준으로…”</text>
<path d="M650,347H1202L1220,365V432H650Z M1202,347V365H1220" fill="#FFFFFF" stroke="#222222" stroke-width="1.6"/>
<text x="935.0" y="383.2" data-width="546" font-size="21" font-weight="400" text-anchor="middle">S2 / P2  t=100.8~101.6</text>
<text x="935.0" y="410.5" data-width="546" font-size="21" font-weight="400" text-anchor="middle">scroll / window B / viewport v2</text>
<path d="M1260,347H1812L1830,365V432H1260Z M1812,347V365H1830" fill="#FFFFFF" stroke="#222222" stroke-width="1.6"/>
<text x="1545.0" y="383.2" data-width="546" font-size="21" font-weight="400" text-anchor="middle">t=102.1  final r1 + item mapping</text>
<text x="1545.0" y="410.5" data-width="546" font-size="21" font-weight="400" text-anchor="middle">span 가능 여부/오차는 별도 정보</text>
<path d="M1870,347H2422L2440,365V432H1870Z M2422,347V365H2440" fill="#FFFFFF" stroke="#222222" stroke-width="1.6"/>
<text x="2155.0" y="383.2" data-width="546" font-size="21" font-weight="400" text-anchor="middle">S2/P2 및 source seq / watermark</text>
<text x="2155.0" y="410.5" data-width="546" font-size="21" font-weight="400" text-anchor="middle">누락은 gap / 같은 좌표 ≠ 같은 표</text>
<path d="M40,489H592L610,507V574H40Z M592,489V507H610" fill="#FFFFFF" stroke="#222222" stroke-width="1.6"/>
<text x="325.0" y="525.2" data-width="546" font-size="21" font-weight="400" text-anchor="middle">E3  t=101.7  로컬 VAD 종료</text>
<text x="325.0" y="552.5" data-width="546" font-size="21" font-weight="400" text-anchor="middle">provider final 완료와 다른 경계</text>
<path d="M650,489H1202L1220,507V574H650Z M1202,489V507H1220" fill="#FFFFFF" stroke="#222222" stroke-width="1.6"/>
<text x="935.0" y="525.2" data-width="546" font-size="21" font-weight="400" text-anchor="middle">E6  늦은 capture 또는 전사 r2</text>
<text x="935.0" y="552.5" data-width="546" font-size="21" font-weight="400" text-anchor="middle">이전 job 취소 / 새 input revision</text>
<path d="M1260,489H1812L1830,507V574H1260Z M1812,489V507H1830" fill="#FFFFFF" stroke="#222222" stroke-width="1.6"/>
<text x="1545.0" y="525.2" data-width="546" font-size="21" font-weight="400" text-anchor="middle">timing 없으면 span=unknown</text>
<text x="1545.0" y="552.5" data-width="546" font-size="21" font-weight="400" text-anchor="middle">최신 화면으로 E1/E2를 대체하지 않음</text>
<path d="M1870,489H2422L2440,507V574H1870Z M2422,489V507H2440" fill="#FFFFFF" stroke="#222222" stroke-width="1.6"/>
<text x="2155.0" y="525.2" data-width="546" font-size="21" font-weight="400" text-anchor="middle">E8  누락/오차로 불명확한 지칭</text>
<text x="2155.0" y="552.5" data-width="546" font-size="21" font-weight="400" text-anchor="middle">다른 근거 / 재지칭 / 확인 필요</text>
<rect x="40" y="640" width="1800" height="225" rx="0" fill="#FFFFFF" stroke="#222222" stroke-width="1.6"/>
<text x="55" y="673.0" data-width="1770" font-size="25" font-weight="700" text-anchor="start">Interaction Manager</text>
<rect x="70" y="719" width="370" height="60" rx="9" fill="#FFFFFF" stroke="#222222" stroke-width="1.6"/>
<text x="255.0" y="756.35" data-width="346" font-size="21" font-weight="400" text-anchor="middle">Evidence Capture</text>
<rect x="590" y="719" width="400" height="60" rx="9" fill="#FFFFFF" stroke="#222222" stroke-width="1.6"/>
<text x="790.0" y="756.35" data-width="376" font-size="21" font-weight="400" text-anchor="middle">Timeline &amp; Buffer</text>
<path d="M1160,728C1160,710 1770,710 1770,728V780C1770,798 1160,798 1160,780Z M1160,728C1160,746 1770,746 1770,728" fill="#FFFFFF" stroke="#222222" stroke-width="1.6"/>
<text x="1465.0" y="769.35" data-width="586" font-size="21" font-weight="400" text-anchor="middle">Input Observation Window</text>
<rect x="1900" y="719" width="620" height="70" rx="0" fill="#FFFFFF" stroke="#222222" stroke-width="1.6"/>
<text x="1915" y="752.0" data-width="590" font-size="25" font-weight="700" text-anchor="start">Request Controller</text>
<rect x="40" y="973" width="810" height="230" rx="0" fill="#FFFFFF" stroke="#222222" stroke-width="1.6"/>
<text x="55" y="1006.0" data-width="780" font-size="25" font-weight="700" text-anchor="start">Context Manager</text>
<rect x="75" y="1050" width="335" height="60" rx="9" fill="#FCE4D6" stroke="#9B502B" stroke-width="2.4"/>
<text x="242.5" y="1087.35" data-width="311" font-size="21" font-weight="400" text-anchor="middle">Context Composer</text>
<path d="M500,1054C500,1036 835,1036 835,1054V1106C835,1124 500,1124 500,1106Z M500,1054C500,1072 835,1072 835,1054" fill="#FCE4D6" stroke="#9B502B" stroke-width="2.4"/>
<text x="667.5" y="1095.35" data-width="311" font-size="21" font-weight="400" text-anchor="middle">Request Evidence Set</text>
<rect x="930" y="1035" width="280" height="80" rx="0" fill="#FFFFFF" stroke="#222222" stroke-width="1.6"/>
<text x="945" y="1068.0" data-width="250" font-size="25" font-weight="700" text-anchor="start">Request Interpreter</text>
<rect x="1320" y="973" width="950" height="230" rx="0" fill="#FFFFFF" stroke="#222222" stroke-width="1.6"/>
<text x="1335" y="1006.0" data-width="920" font-size="25" font-weight="700" text-anchor="start">Context Manager</text>
<rect x="1350" y="1050" width="260" height="60" rx="9" fill="#FCE4D6" stroke="#9B502B" stroke-width="2.4"/>
<text x="1480.0" y="1087.35" data-width="236" font-size="21" font-weight="400" text-anchor="middle">Evidence Publisher</text>
<path d="M1645,1054C1645,1036 1940,1036 1940,1054V1116C1940,1134 1645,1134 1645,1116Z M1645,1054C1645,1072 1940,1072 1940,1054" fill="#FCE4D6" stroke="#9B502B" stroke-width="2.4"/>
<text x="1792.5" y="1086.7" data-width="271" font-size="21" font-weight="400" text-anchor="middle">Context Evidence</text>
<text x="1792.5" y="1114.0" data-width="271" font-size="21" font-weight="400" text-anchor="middle">Repository</text>
<rect x="1980" y="1050" width="250" height="60" rx="9" fill="#FCE4D6" stroke="#9B502B" stroke-width="2.4"/>
<text x="2105.0" y="1087.35" data-width="226" font-size="21" font-weight="400" text-anchor="middle">Evidence Reader</text>
<rect x="2300" y="1035" width="220" height="85" rx="0" fill="#FFFFFF" stroke="#222222" stroke-width="1.6"/>
<text x="2315" y="1068.0" data-width="190" font-size="25" font-weight="700" text-anchor="start">Request</text>
<text x="2315" y="1100.5" data-width="190" font-size="25" font-weight="700" text-anchor="start">Interpreter</text>
<polyline points="1220,390 1235,390 1235,610 255,610 255,719" fill="none" stroke="#333" stroke-width="1.6" marker-end="url(#arrow)"/>
<polyline points="1260,390 1248,390 1248,590 1070,590 1070,690 790,690 790,719" fill="none" stroke="#333" stroke-width="1.6" marker-end="url(#arrow)"/>
<polyline points="440,749 590,749" fill="none" stroke="#333" stroke-width="1.6" marker-end="url(#arrow)"/>
<polyline points="990,749 1160,749" fill="none" stroke="#333" stroke-width="1.6" marker-end="url(#arrow)" marker-start="url(#arrow)"/>
<polyline points="1770,754 1900,754" fill="none" stroke="#333" stroke-width="1.6" marker-end="url(#arrow)"/>
<polyline points="1310,789 1310,880 20,880 20,1080 75,1080" fill="none" stroke="#333" stroke-width="1.6" marker-end="url(#arrow)"/>
<polyline points="410,1080 500,1080" fill="none" stroke="#333" stroke-width="1.6" marker-end="url(#arrow)"/>
<polyline points="835,1080 930,1080" fill="none" stroke="#333" stroke-width="1.6" marker-end="url(#arrow)"/>
<polyline points="1450,789 1450,1050" fill="none" stroke="#333" stroke-width="1.6" marker-end="url(#arrow)"/>
<polyline points="1610,1080 1645,1080" fill="none" stroke="#333" stroke-width="1.6" marker-end="url(#arrow)"/>
<polyline points="1980,1080 1940,1080" fill="none" stroke="#333" stroke-width="1.6" marker-end="url(#arrow)" marker-start="url(#arrow)"/>
<polyline points="2105,1050 2105,1020 1495,1020 1495,1050" fill="none" stroke="#333" stroke-width="1.6" marker-end="url(#arrow)"/>
<polyline points="2230,1080 2300,1080" fill="none" stroke="#333" stroke-width="1.6" marker-end="url(#arrow)"/>
<rect x="37" y="18" width="2476" height="48.1" fill="white"/>
<text x="40" y="55.0" data-width="2470" font-size="37" font-weight="700" text-anchor="start">46  발화 시각과 관측 시각, 전사 도착과 근거 준비를 구별하기</text>
<rect x="37" y="78" width="2476" height="29.900000000000002" fill="white"/>
<text x="40" y="101.0" data-width="2470" font-size="23" font-weight="400" text-anchor="start">같은 u46 / 모든 시각은 설명용 local monotonic 예시이며 성능 목표나 측정값이 아님 / 단어 timing은 provider capability 미확인</text>
<rect x="37" y="138" width="581" height="33.800000000000004" fill="white"/>
<text x="40" y="164.0" data-width="575" font-size="26" font-weight="700" text-anchor="start">로컬 발화 / acoustic 구간</text>
<rect x="647" y="138" width="581" height="33.800000000000004" fill="white"/>
<text x="650" y="164.0" data-width="575" font-size="26" font-weight="700" text-anchor="start">당시 화면 / 행동</text>
<rect x="1257" y="138" width="581" height="33.800000000000004" fill="white"/>
<text x="1260" y="164.0" data-width="575" font-size="26" font-weight="700" text-anchor="start">클라우드 전사 도착</text>
<rect x="1867" y="138" width="581" height="33.800000000000004" fill="white"/>
<text x="1870" y="164.0" data-width="575" font-size="26" font-weight="700" text-anchor="start">코드가 보존하는 의미 전 상태</text>
<rect x="442" y="785" width="666" height="24.7" fill="white"/>
<text x="445" y="804.0" data-width="660" font-size="19" font-weight="400" text-anchor="start">capture/time/sample 대응은 코드 / 단어와 대상의 의미는 별도</text>
<rect x="1902" y="803" width="611" height="52.0" fill="white"/>
<text x="1905" y="823.0" data-width="605" font-size="20" font-weight="400" text-anchor="start">Input + Evidence Record / u46@r1 / W46</text>
<text x="1905" y="849.0" data-width="605" font-size="20" font-weight="400" text-anchor="start">원문/후보refs/gap / 아직 R46/T46의 정답이 아님</text>
<rect x="72" y="825" width="1746" height="26.0" fill="white"/>
<text x="75" y="845.0" data-width="1740" font-size="20" font-weight="400" text-anchor="start">공통 원본: acoustic span ↔ local sample ↔ capture interval + 오차. 수신 순서나 VAD만으로 단어 시각을 만들지 않음.</text>
<rect x="37" y="906" width="1206" height="35.1" fill="white"/>
<text x="40" y="933.0" data-width="1200" font-size="27" font-weight="700" text-anchor="start">A  E4: 필요한 원본에서 이번 Bundle 구성</text>
<rect x="1317" y="906" width="1206" height="35.1" fill="white"/>
<text x="1320" y="933.0" data-width="1200" font-size="27" font-weight="700" text-anchor="start">B  E4: 유효 게시 record가 Context 읽기의 준비 조건</text>
<rect x="77" y="1127" width="756" height="52.0" fill="white"/>
<text x="80" y="1147.0" data-width="750" font-size="20" font-weight="400" text-anchor="start">같은 P20 / Task-result / 명시 User Memory를 owner read</text>
<text x="80" y="1173.0" data-width="750" font-size="20" font-weight="400" text-anchor="start">E5 재사용: 유효 cache/부분 갱신. 현재 정정 의미는 재판단.</text>
<rect x="1367" y="1135" width="876" height="49.4" fill="white"/>
<text x="1370" y="1154.0" data-width="870" font-size="19" font-weight="400" text-anchor="start">NOT_COVERED → 필요 범위 생산/검사/게시 → 재조회 → 같은 현재 해석</text>
<text x="1370" y="1178.7" data-width="870" font-size="19" font-weight="400" text-anchor="start">E5 유효 record 재사용 / E6 dependency 차단/재생산 / 원본 우회는 B+.</text>
<rect x="42" y="1240" width="2476" height="28.6" fill="white"/>
<text x="45" y="1262.0" data-width="2470" font-size="22" font-weight="400" text-anchor="start">E7 취소: capture 지속, 옛 의미 job과 미전송 처리 차단. E9 장애/E11 재시작: 원본이 없는 파생 view는 복원 불가.</text>
<rect x="42" y="1285" width="2476" height="28.6" fill="white"/>
<text x="45" y="1307.0" data-width="2470" font-size="22" font-weight="400" text-anchor="start">E10 만료/철회: 원본/cache/파생 record와 미사용 job의 이용 gate 차단과 cleanup. 짧은 화면 view를 장기 기억에 자동 복제하지 않음.</text>
<rect x="42" y="1360" width="2476" height="28.6" fill="white"/>
<text x="45" y="1382.0" data-width="2470" font-size="22" font-weight="400" text-anchor="start">그림은 관측과 Context 공급 확대. 입력 확정/Context 준비/현재 의미 채택/실제 전송은 다른 경계. A/B 품질 우위는 미검증.</text>
</g></svg>
