<svg xmlns="http://www.w3.org/2000/svg" width="2560" height="2760" viewBox="0 0 2560 2760" role="img" aria-labelledby="title"><title id="title">요청 이해의 정확성을 위한 의미 구성 — 요청별 생성과 지속 의미 작업공간</title><defs>
<marker id="a263445" viewBox="0 0 10 10" refX="9" refY="5" markerWidth="7" markerHeight="7" orient="auto-start-reverse"><path d="M1 1L9 5L1 9" fill="none" stroke="#263445" stroke-width="1.6"/></marker>
<marker id="a195FBD" viewBox="0 0 10 10" refX="9" refY="5" markerWidth="7" markerHeight="7" orient="auto-start-reverse"><path d="M1 1L9 5L1 9" fill="none" stroke="#195FBD" stroke-width="1.6"/></marker>
<marker id="a087A53" viewBox="0 0 10 10" refX="9" refY="5" markerWidth="7" markerHeight="7" orient="auto-start-reverse"><path d="M1 1L9 5L1 9" fill="none" stroke="#087A53" stroke-width="1.6"/></marker>
</defs>
<rect width="2560" height="2760" fill="white"/><g font-family="Arial, Apple SD Gothic Neo, Malgun Gothic, sans-serif">
<rect id="e1" x="0" y="0" width="2560" height="9" rx="0" fill="#263445" stroke="none" stroke-width="1.5"/>
<g id="Arc" data-component="true"><rect x="94" y="650" width="650" height="90" rx="4" fill="white" stroke="#263445" stroke-width="2.2"/>
<path d="M94 712H744" stroke="#263445" stroke-width="1.4"/>
<text x="112" y="688.0" text-anchor="start" font-size="23" font-weight="700" fill="#263445">Request Controller</text>
</g>
<g id="Ari" data-component="true"><rect x="94" y="940" width="650" height="690" rx="4" fill="white" stroke="#263445" stroke-width="2.2"/>
<path d="M94 1002H744" stroke="#263445" stroke-width="1.4"/>
<text x="112" y="978.0" text-anchor="start" font-size="23" font-weight="700" fill="#263445">Request Interpreter</text>
</g>
<g id="Ama" data-component="true"><rect x="874" y="1030" width="350" height="85" rx="4" fill="white" stroke="#263445" stroke-width="2.2"/>
<path d="M874 1092H1224" stroke="#263445" stroke-width="1.4"/>
<text x="892" y="1068.0" text-anchor="start" font-size="23" font-weight="700" fill="#263445">Model Access</text>
</g>
<g id="Aout" data-component="true"><rect x="94" y="1820" width="650" height="90" rx="4" fill="white" stroke="#263445" stroke-width="2.2"/>
<path d="M94 1882H744" stroke="#263445" stroke-width="1.4"/>
<text x="112" y="1858.0" text-anchor="start" font-size="23" font-weight="700" fill="#263445">Request Controller</text>
</g>
<g id="Acm" data-component="true"><rect x="874" y="1630" width="350" height="90" rx="4" fill="white" stroke="#263445" stroke-width="2.2"/>
<path d="M874 1692H1224" stroke="#263445" stroke-width="1.4"/>
<text x="892" y="1668.0" text-anchor="start" font-size="23" font-weight="700" fill="#263445">Context Manager</text>
</g>
<g id="Atm" data-component="true"><rect x="874" y="1930" width="350" height="90" rx="4" fill="white" stroke="#263445" stroke-width="2.2"/>
<path d="M874 1992H1224" stroke="#263445" stroke-width="1.4"/>
<text x="892" y="1968.0" text-anchor="start" font-size="23" font-weight="700" fill="#263445">Task Manager</text>
</g>
<g id="Arm" data-component="true"><rect x="94" y="2140" width="650" height="90" rx="4" fill="white" stroke="#263445" stroke-width="2.2"/>
<path d="M94 2202H744" stroke="#263445" stroke-width="1.4"/>
<text x="112" y="2178.0" text-anchor="start" font-size="23" font-weight="700" fill="#263445">Response Manager</text>
</g>
<g id="Aim" data-component="true"><rect x="94" y="410" width="650" height="90" rx="4" fill="white" stroke="#263445" stroke-width="2.2"/>
<path d="M94 472H744" stroke="#263445" stroke-width="1.4"/>
<text x="112" y="448.0" text-anchor="start" font-size="23" font-weight="700" fill="#263445">Interaction Manager</text>
</g>
<g id="Brc" data-component="true"><rect x="1342" y="650" width="650" height="90" rx="4" fill="white" stroke="#263445" stroke-width="2.2"/>
<path d="M1342 712H1992" stroke="#263445" stroke-width="1.4"/>
<text x="1360" y="688.0" text-anchor="start" font-size="23" font-weight="700" fill="#263445">Request Controller</text>
</g>
<g id="Bri" data-component="true"><rect x="1342" y="920" width="650" height="90" rx="4" fill="white" stroke="#263445" stroke-width="2.2"/>
<path d="M1342 982H1992" stroke="#263445" stroke-width="1.4"/>
<text x="1360" y="958.0" text-anchor="start" font-size="23" font-weight="700" fill="#263445">Request Interpreter</text>
</g>
<g id="Bma" data-component="true"><rect x="2122" y="860" width="350" height="85" rx="4" fill="white" stroke="#263445" stroke-width="2.2"/>
<path d="M2122 922H2472" stroke="#263445" stroke-width="1.4"/>
<text x="2140" y="898.0" text-anchor="start" font-size="23" font-weight="700" fill="#263445">Model Access</text>
</g>
<g id="Bws" data-component="true"><rect x="1342" y="1200" width="650" height="530" rx="4" fill="white" stroke="#087A53" stroke-width="2.2"/>
<path d="M1342 1262H1992" stroke="#087A53" stroke-width="1.4"/>
<text x="1360" y="1238.0" text-anchor="start" font-size="23" font-weight="700" fill="#087A53">Meaning Workspace</text>
</g>
<g id="Bengine" data-component="true"><rect x="2122" y="1320" width="350" height="100" rx="4" fill="white" stroke="#087A53" stroke-width="2.2"/>
<path d="M2122 1382H2472" stroke="#087A53" stroke-width="1.4"/>
<text x="2140" y="1358.0" text-anchor="start" font-size="23" font-weight="700" fill="#087A53">Semantic Constraint Engine</text>
</g>
<g id="Bout" data-component="true"><rect x="1342" y="1910" width="650" height="90" rx="4" fill="white" stroke="#263445" stroke-width="2.2"/>
<path d="M1342 1972H1992" stroke="#263445" stroke-width="1.4"/>
<text x="1360" y="1948.0" text-anchor="start" font-size="23" font-weight="700" fill="#263445">Request Controller</text>
</g>
<g id="Bcm" data-component="true"><rect x="2122" y="1670" width="350" height="90" rx="4" fill="white" stroke="#263445" stroke-width="2.2"/>
<path d="M2122 1732H2472" stroke="#263445" stroke-width="1.4"/>
<text x="2140" y="1708.0" text-anchor="start" font-size="23" font-weight="700" fill="#263445">Context Manager</text>
</g>
<g id="Btm" data-component="true"><rect x="2122" y="1950" width="350" height="90" rx="4" fill="white" stroke="#263445" stroke-width="2.2"/>
<path d="M2122 2012H2472" stroke="#263445" stroke-width="1.4"/>
<text x="2140" y="1988.0" text-anchor="start" font-size="23" font-weight="700" fill="#263445">Task Manager</text>
</g>
<g id="Brm" data-component="true"><rect x="1342" y="2140" width="650" height="90" rx="4" fill="white" stroke="#263445" stroke-width="2.2"/>
<path d="M1342 2202H1992" stroke="#263445" stroke-width="1.4"/>
<text x="1360" y="2178.0" text-anchor="start" font-size="23" font-weight="700" fill="#263445">Response Manager</text>
</g>
<g id="Bim" data-component="true"><rect x="1342" y="410" width="650" height="90" rx="4" fill="white" stroke="#263445" stroke-width="2.2"/>
<path d="M1342 472H1992" stroke="#263445" stroke-width="1.4"/>
<text x="1360" y="448.0" text-anchor="start" font-size="23" font-weight="700" fill="#263445">Interaction Manager</text>
</g>
<polyline id="e6" points="64,202 2496,202" fill="none" stroke="#C7D1DD" stroke-width="2"/>
<polyline id="e11" points="744,675.0 874,675.0" fill="none" stroke="#195FBD" stroke-width="2" marker-end="url(#a195FBD)"/>
<polyline id="e13" points="874,715.0 744,715.0" fill="none" stroke="#195FBD" stroke-width="2" stroke-dasharray="7 5" marker-end="url(#a195FBD)"/>
<polyline id="e18" points="419.0,740 419,860 449,860 449.0,1080" fill="none" stroke="#195FBD" stroke-width="2" marker-end="url(#a195FBD)"/>
<polyline id="e20" points="204,1105.0 72,1105 72,695 94,695.0" fill="none" stroke="#195FBD" stroke-width="2" marker-end="url(#a195FBD)"/>
<polyline id="e22" points="449.0,1180 449.0,1390" fill="none" stroke="#195FBD" stroke-width="2" marker-end="url(#a195FBD)"/>
<polyline id="e24" points="204,1440.0 139,1440 139,1130 204,1130.0" fill="none" stroke="#195FBD" stroke-width="2" marker-end="url(#a195FBD)"/>
<polyline id="e28" points="1014.0,1115 1014.0,1265" fill="none" stroke="#263445" stroke-width="2" marker-end="url(#a263445)"/>
<polyline id="e30" points="1084.0,1265 1084.0,1115" fill="none" stroke="#263445" stroke-width="2" stroke-dasharray="7 5" marker-end="url(#a263445)"/>
<polyline id="e32" points="694,1115.0 809,1115.0 809,1057.5 874,1057.5" fill="none" stroke="#263445" stroke-width="2" marker-end="url(#a263445)"/>
<polyline id="e34" points="874,1087.5 829,1087.5 829,1145.0 694,1145.0" fill="none" stroke="#263445" stroke-width="2" stroke-dasharray="7 5" marker-end="url(#a263445)"/>
<polyline id="e37" points="449.0,1490 449,1720 419,1720 419.0,1820" fill="none" stroke="#195FBD" stroke-width="2" stroke-dasharray="7 5" marker-end="url(#a195FBD)"/>
<polyline id="e41" points="744,1840.0 794,1840 794,1660 874,1660.0" fill="none" stroke="#195FBD" stroke-width="2" marker-end="url(#a195FBD)"/>
<polyline id="e43" points="874,1690.0 824,1690 824,1855 744,1855.0" fill="none" stroke="#195FBD" stroke-width="2" stroke-dasharray="7 5" marker-end="url(#a195FBD)"/>
<polyline id="e45" points="744,1880.0 794,1880 794,1960 874,1960.0" fill="none" stroke="#195FBD" stroke-width="2" marker-end="url(#a195FBD)"/>
<polyline id="e47" points="874,1990.0 824,1990 824,1895 744,1895.0" fill="none" stroke="#195FBD" stroke-width="2" stroke-dasharray="7 5" marker-end="url(#a195FBD)"/>
<polyline id="e51" points="744,1900.0 854,1900 854,2185 874,2185.0" fill="none" stroke="#195FBD" stroke-width="2" marker-end="url(#a195FBD)"/>
<polyline id="e55" points="309.0,1910 309.0,2140" fill="none" stroke="#263445" stroke-width="2" marker-end="url(#a263445)"/>
<polyline id="e57" points="529.0,2140 529.0,1910" fill="none" stroke="#263445" stroke-width="2" stroke-dasharray="7 5" marker-end="url(#a263445)"/>
<polyline id="e61" points="419.0,500 419.0,650" fill="none" stroke="#263445" stroke-width="2" marker-end="url(#a263445)"/>
<polyline id="e63" points="64,2340 1248,2340" fill="none" stroke="#C7D1DD" stroke-width="2"/>
<polyline id="e71" points="2262.0,945 2262.0,1095" fill="none" stroke="#263445" stroke-width="2" marker-end="url(#a263445)"/>
<polyline id="e73" points="2332.0,1095 2332.0,945" fill="none" stroke="#263445" stroke-width="2" stroke-dasharray="7 5" marker-end="url(#a263445)"/>
<polyline id="e75" points="1992,950.0 2057,950.0 2057,887.5 2122,887.5" fill="none" stroke="#263445" stroke-width="2" marker-end="url(#a263445)"/>
<polyline id="e77" points="2122,917.5 2077,917.5 2077,980.0 1992,980.0" fill="none" stroke="#263445" stroke-width="2" stroke-dasharray="7 5" marker-end="url(#a263445)"/>
<polyline id="e79" points="1667.0,740 1667.0,920" fill="none" stroke="#087A53" stroke-width="2" marker-end="url(#a087A53)"/>
<polyline id="e85" points="1667.0,1010 1667,1110 1697,1110 1697.0,1320" fill="none" stroke="#087A53" stroke-width="2" marker-end="url(#a087A53)"/>
<polyline id="e87" points="1342,950.0 1320,950 1320,1430 1342,1430.0" fill="none" stroke="#087A53" stroke-width="2" marker-end="url(#a087A53)"/>
<polyline id="e89" points="1342,1465.0 1332,1465 1332,980 1342,980.0" fill="none" stroke="#087A53" stroke-width="2" stroke-dasharray="7 5" marker-end="url(#a087A53)"/>
<polyline id="e91" points="1582.0,1420 1582.0,1580" fill="none" stroke="#087A53" stroke-width="2" marker-end="url(#a087A53)"/>
<polyline id="e93" points="1812.0,1580 1812.0,1420" fill="none" stroke="#087A53" stroke-width="2" stroke-dasharray="7 5" marker-end="url(#a087A53)"/>
<polyline id="e95" points="1942,1350.0 2122,1350.0" fill="none" stroke="#087A53" stroke-width="2" marker-end="url(#a087A53)"/>
<polyline id="e97" points="2122,1390.0 1942,1390.0" fill="none" stroke="#087A53" stroke-width="2" stroke-dasharray="7 5" marker-end="url(#a087A53)"/>
<polyline id="e101" points="1557.0,1730 1557.0,1910" fill="none" stroke="#087A53" stroke-width="2" stroke-dasharray="7 5" marker-end="url(#a087A53)"/>
<polyline id="e103" points="1777.0,1910 1777.0,1730" fill="none" stroke="#087A53" stroke-width="2" marker-end="url(#a087A53)"/>
<polyline id="e107" points="1992,1490.0 2027,1490 2027,1700 2122,1700.0" fill="none" stroke="#087A53" stroke-width="2" marker-end="url(#a087A53)"/>
<polyline id="e109" points="2122,1730.0 2047,1730 2047,1520 1992,1520.0" fill="none" stroke="#087A53" stroke-width="2" stroke-dasharray="7 5" marker-end="url(#a087A53)"/>
<polyline id="e111" points="1992,1545.0 2077,1545 2077,1980 2122,1980.0" fill="none" stroke="#087A53" stroke-width="2" marker-end="url(#a087A53)"/>
<polyline id="e113" points="2122,2010.0 2097,2010 2097,1575 1992,1575.0" fill="none" stroke="#087A53" stroke-width="2" stroke-dasharray="7 5" marker-end="url(#a087A53)"/>
<polyline id="e117" points="1557.0,2000 1557.0,2140" fill="none" stroke="#263445" stroke-width="2" marker-end="url(#a263445)"/>
<polyline id="e119" points="1777.0,2140 1777.0,2000" fill="none" stroke="#263445" stroke-width="2" stroke-dasharray="7 5" marker-end="url(#a263445)"/>
<polyline id="e123" points="1667.0,500 1667.0,650" fill="none" stroke="#263445" stroke-width="2" marker-end="url(#a263445)"/>
<polyline id="e125" points="1312,2340 2496,2340" fill="none" stroke="#C7D1DD" stroke-width="2"/>
<g id="Aread" data-node="true" data-x="874" data-y="650" data-w="350" data-h="90">
<path d="M874 664C874 645 1224 645 1224 664V726C1224 745 874 745 874 726Z M874 664C874 683 1224 683 1224 664" fill="#EEF4FF" stroke="#195FBD" stroke-width="1.7"/>
<text x="1049.0" y="711.25" text-anchor="middle" font-size="22" font-weight="700" fill="#195FBD">채택 제안과 질문</text>
</g>
<g id="Agen" data-node="true" data-x="204" data-y="1080" data-w="490" data-h="100">
<rect x="204" y="1080" width="490" height="100" rx="12" fill="#EEF4FF" stroke="#195FBD" stroke-width="1.6"/>
<text x="449.0" y="1136.25" text-anchor="middle" font-size="22" font-weight="700" fill="#195FBD">전체 의미 생성기</text>
</g>
<g id="Acheck" data-node="true" data-x="204" data-y="1390" data-w="490" data-h="100">
<rect x="204" y="1390" width="490" height="100" rx="12" fill="#EEF4FF" stroke="#195FBD" stroke-width="1.6"/>
<text x="449.0" y="1446.25" text-anchor="middle" font-size="22" font-weight="700" fill="#195FBD">대상과 조건 검증기</text>
</g>
<g id="Aomni" data-node="true" data-x="874" data-y="1265" data-w="350" data-h="90">
<path d="M898 1265H1200L1224 1310.0L1200 1355H898L874 1310.0Z" fill="#F7F9FC" stroke="#263445" stroke-width="1.7"/>
<text x="1049.0" y="1316.25" text-anchor="middle" font-size="22" font-weight="700" fill="#263445">공유 Omni</text>
</g>
<g id="Asaved" data-node="true" data-x="874" data-y="2140" data-w="350" data-h="90">
<path d="M874 2154C874 2135 1224 2135 1224 2154V2216C1224 2235 874 2235 874 2216Z M874 2154C874 2173 1224 2173 1224 2154" fill="#EEF4FF" stroke="#195FBD" stroke-width="1.7"/>
<text x="1049.0" y="2201.25" text-anchor="middle" font-size="22" font-weight="700" fill="#195FBD">채택 제안과 질문</text>
</g>
<g id="Bomni" data-node="true" data-x="2122" data-y="1095" data-w="350" data-h="90">
<path d="M2146 1095H2448L2472 1140.0L2448 1185H2146L2122 1140.0Z" fill="#F7F9FC" stroke="#263445" stroke-width="1.7"/>
<text x="2297.0" y="1146.25" text-anchor="middle" font-size="22" font-weight="700" fill="#263445">공유 Omni</text>
</g>
<g id="Bapply" data-node="true" data-x="1452" data-y="1320" data-w="490" data-h="100">
<rect x="1452" y="1320" width="490" height="100" rx="12" fill="#EDF9F2" stroke="#087A53" stroke-width="1.6"/>
<text x="1697.0" y="1376.25" text-anchor="middle" font-size="22" font-weight="700" fill="#087A53">의미 변경 적용기</text>
</g>
<g id="Bstate" data-node="true" data-x="1452" data-y="1580" data-w="490" data-h="90">
<path d="M1452 1594C1452 1575 1942 1575 1942 1594V1656C1942 1675 1452 1675 1452 1656Z M1452 1594C1452 1613 1942 1613 1942 1594" fill="#EDF9F2" stroke="#087A53" stroke-width="1.7"/>
<text x="1697.0" y="1641.25" text-anchor="middle" font-size="22" font-weight="700" fill="#087A53">채택 의미와 질문</text>
</g>
<g id="e2"><text x="64" y="60.0" text-anchor="start" font-size="18" font-weight="700" fill="#5B697B">VIA  /  ARCHITECTURE REVIEW</text></g>
<g id="e3"><text x="2496" y="60.0" text-anchor="end" font-size="18" font-weight="700" fill="#5B697B">04-31  /  STAGE 04</text></g>
<g id="e4"><text x="64" y="109" text-anchor="start" font-size="34" font-weight="700" fill="#263445">요청 이해의 정확성을 위한 의미 구성</text><text x="64" y="153" text-anchor="start" font-size="34" font-weight="700" fill="#263445">요청별 생성과 지속 의미 작업공간</text></g>
<g id="e5"><text x="64" y="188.0" text-anchor="start" font-size="22" font-weight="400" fill="#5B697B">“작년 표는 보고서에, 메일은 초안만” → “오른쪽 표”로 보완 → 발송 금지는 유지</text></g>
<g id="e7"><text x="64" y="315.0" text-anchor="start" font-size="30" font-weight="700" fill="#195FBD">A  조회/추론 loop로 전체 의미 제안</text></g>
<g id="e9"><text x="94" y="600.0" text-anchor="start" font-size="20" font-weight="400" fill="#5B697B">초기 안내는 같은 범위. 관련 업무는 미결정; 모든 과거 자료를 넣지 않음.</text></g>
<g id="e12" paint-order="stroke" stroke="white" stroke-width="7" stroke-linejoin="round"><text x="749" y="669.0" text-anchor="start" font-size="18" font-weight="400" fill="#195FBD">관련 기록 조회</text></g>
<g id="e14" paint-order="stroke" stroke="white" stroke-width="7" stroke-linejoin="round"><text x="749" y="736.0" text-anchor="start" font-size="18" font-weight="400" fill="#195FBD">이전 의미/질문</text></g>
<g id="e19" paint-order="stroke" stroke="white" stroke-width="7" stroke-linejoin="round"><text x="129" y="821.0" text-anchor="start" font-size="18" font-weight="400" fill="#195FBD">1  원문/초기 안내 또는 읽기 결과로 추론</text></g>
<g id="e21" paint-order="stroke" stroke="white" stroke-width="7" stroke-linejoin="round"><text x="84" y="858.0" text-anchor="start" font-size="18" font-weight="400" fill="#195FBD">추가 조회 요청</text><text x="84" y="882.3" text-anchor="start" font-size="18" font-weight="400" fill="#195FBD">의미/자료/Task</text><text x="84" y="906.6" text-anchor="start" font-size="18" font-weight="400" fill="#195FBD">결과로 다시 추론</text></g>
<g id="e23" paint-order="stroke" stroke="white" stroke-width="7" stroke-linejoin="round"><text x="459" y="1278.0" text-anchor="start" font-size="18" font-weight="400" fill="#195FBD">2  목표/대상/조건/업무 관계의 완성안</text></g>
<g id="e25" paint-order="stroke" stroke="white" stroke-width="7" stroke-linejoin="round"><text x="144" y="1278.0" text-anchor="start" font-size="18" font-weight="400" fill="#195FBD">수정 가능 오류</text><text x="144" y="1302.3" text-anchor="start" font-size="18" font-weight="400" fill="#195FBD">근거 내 재생성</text><text x="144" y="1326.6" text-anchor="start" font-size="18" font-weight="400" fill="#195FBD">횟수 제한</text></g>
<g id="e29" paint-order="stroke" stroke="white" stroke-width="7" stroke-linejoin="round"><text x="879" y="1168.0" text-anchor="start" font-size="18" font-weight="400" fill="#263445">추론 입력</text></g>
<g id="e31" paint-order="stroke" stroke="white" stroke-width="7" stroke-linejoin="round"><text x="1079" y="1213.0" text-anchor="start" font-size="18" font-weight="400" fill="#263445">결과</text></g>
<g id="e33" paint-order="stroke" stroke="white" stroke-width="7" stroke-linejoin="round"><text x="724" y="1093.0" text-anchor="start" font-size="18" font-weight="400" fill="#263445">모델 입력</text></g>
<g id="e35" paint-order="stroke" stroke="white" stroke-width="7" stroke-linejoin="round"><text x="724" y="1138.0" text-anchor="start" font-size="18" font-weight="400" fill="#263445">모델 결과</text></g>
<g id="e38" paint-order="stroke" stroke="white" stroke-width="7" stroke-linejoin="round"><text x="129" y="1688.0" text-anchor="start" font-size="18" font-weight="400" fill="#195FBD">3  정상 의미 / 미해결 질문 / 거절 사유</text></g>
<g id="e42" paint-order="stroke" stroke="white" stroke-width="7" stroke-linejoin="round"><text x="799" y="1641.0" text-anchor="start" font-size="18" font-weight="400" fill="#195FBD">자료 조회</text></g>
<g id="e44" paint-order="stroke" stroke="white" stroke-width="7" stroke-linejoin="round"><text x="829" y="1718.0" text-anchor="start" font-size="18" font-weight="400" fill="#195FBD">근거/변경</text></g>
<g id="e46" paint-order="stroke" stroke="white" stroke-width="7" stroke-linejoin="round"><text x="799" y="1941.0" text-anchor="start" font-size="18" font-weight="400" fill="#195FBD">Task 조회</text></g>
<g id="e48" paint-order="stroke" stroke="white" stroke-width="7" stroke-linejoin="round"><text x="829" y="2018.0" text-anchor="start" font-size="18" font-weight="400" fill="#195FBD">사실/변경</text></g>
<g id="e49"><text x="874" y="1459.0" text-anchor="start" font-size="19" font-weight="400" fill="#5B697B">모델이 고른 조회는 Controller 중개</text><text x="874" y="1484.65" text-anchor="start" font-size="19" font-weight="400" fill="#5B697B">모델 결과: 읽기 요청 또는 완성안</text><text x="874" y="1510.3" text-anchor="start" font-size="19" font-weight="400" fill="#5B697B">채택/외부 실행은 코드가 검사</text></g>
<g id="e52" paint-order="stroke" stroke="white" stroke-width="7" stroke-linejoin="round"><text x="864" y="2088.0" text-anchor="start" font-size="18" font-weight="400" fill="#195FBD">채택 의미/질문/실제 게시 기록 저장</text></g>
<g id="e53"><text x="874" y="2268.0" text-anchor="start" font-size="18" font-weight="400" fill="#5B697B">위와 아래 원통은 같은 상태</text><text x="874" y="2292.3" text-anchor="start" font-size="18" font-weight="400" fill="#5B697B">Controller 소유, State Store 보관</text></g>
<g id="e56" paint-order="stroke" stroke="white" stroke-width="7" stroke-linejoin="round"><text x="119" y="2053.0" text-anchor="start" font-size="18" font-weight="400" fill="#263445">미해결: 질문 전달 요청</text></g>
<g id="e58" paint-order="stroke" stroke="white" stroke-width="7" stroke-linejoin="round"><text x="539" y="2103.0" text-anchor="start" font-size="18" font-weight="400" fill="#263445">실제 게시 기록 반환</text></g>
<g id="e59"><text x="94" y="2268.0" text-anchor="start" font-size="18" font-weight="400" fill="#5B697B">Response Manager → Interaction Manager: 질문 표시/음성; 실제 게시 기록 반환</text><text x="94" y="2292.3" text-anchor="start" font-size="18" font-weight="400" fill="#5B697B">사용자 답변은 Interaction Manager → 상단 Request Controller로 새 입력</text></g>
<g id="e62" paint-order="stroke" stroke="white" stroke-width="7" stroke-linejoin="round"><text x="129" y="548.0" text-anchor="start" font-size="18" font-weight="400" fill="#263445">발화/시점 전달; 신규/보완 관계는 미결정</text></g>
<g id="e64"><text x="79" y="2388" text-anchor="start" font-size="23" font-weight="400" fill="#5B697B">유리: 자유로운 새 의도를 전체 맥락에서 다시 구성</text><text x="79" y="2427" text-anchor="start" font-size="23" font-weight="400" fill="#5B697B">대가: 앞선 조건 누락을 검증해야 함; 관련 근거 재해석</text><text x="79" y="2466" text-anchor="start" font-size="23" font-weight="400" fill="#5B697B">선택: 짧거나 표현 범위가 넓은 대화</text></g>
<g id="e65"><text x="1312" y="315.0" text-anchor="start" font-size="30" font-weight="700" fill="#087A53">B  조회/추론 뒤 지속 의미 상태 구성</text></g>
<g id="e67"><text x="1342" y="600.0" text-anchor="start" font-size="20" font-weight="400" fill="#5B697B">초기 안내는 같은 범위. 관련 업무는 미결정; 모든 과거 자료를 넣지 않음.</text></g>
<g id="e72" paint-order="stroke" stroke="white" stroke-width="7" stroke-linejoin="round"><text x="2127" y="998.0" text-anchor="start" font-size="18" font-weight="400" fill="#263445">추론 입력</text></g>
<g id="e74" paint-order="stroke" stroke="white" stroke-width="7" stroke-linejoin="round"><text x="2327" y="1043.0" text-anchor="start" font-size="18" font-weight="400" fill="#263445">결과</text></g>
<g id="e76" paint-order="stroke" stroke="white" stroke-width="7" stroke-linejoin="round"><text x="1972" y="883.0" text-anchor="start" font-size="18" font-weight="400" fill="#263445">모델 입력</text></g>
<g id="e78" paint-order="stroke" stroke="white" stroke-width="7" stroke-linejoin="round"><text x="1972" y="928.0" text-anchor="start" font-size="18" font-weight="400" fill="#263445">모델 결과</text></g>
<g id="e80" paint-order="stroke" stroke="white" stroke-width="7" stroke-linejoin="round"><text x="1377" y="818.0" text-anchor="start" font-size="18" font-weight="400" fill="#087A53">1  관계 미결정 원문 + 같은 초기 안내</text></g>
<g id="e86" paint-order="stroke" stroke="white" stroke-width="7" stroke-linejoin="round"><text x="1377" y="1083.0" text-anchor="start" font-size="18" font-weight="400" fill="#087A53">2  모델이 관계와 변경 제안; 신규/보완을 미리 정하지 않음</text></g>
<g id="e88" paint-order="stroke" stroke="white" stroke-width="7" stroke-linejoin="round"><text x="1347" y="1163.0" text-anchor="start" font-size="18" font-weight="400" fill="#087A53">의미/자료/Task 조회</text></g>
<g id="e90" paint-order="stroke" stroke="white" stroke-width="7" stroke-linejoin="round"><text x="1347" y="1043.0" text-anchor="start" font-size="18" font-weight="400" fill="#087A53">읽기 결과로 재추론</text></g>
<g id="e92" paint-order="stroke" stroke="white" stroke-width="7" stroke-linejoin="round"><text x="1462" y="1493.0" text-anchor="start" font-size="18" font-weight="400" fill="#087A53">채택한 변경만 적용</text></g>
<g id="e94" paint-order="stroke" stroke="white" stroke-width="7" stroke-linejoin="round"><text x="1822" y="1548.0" text-anchor="start" font-size="18" font-weight="400" fill="#087A53">이전 버전</text></g>
<g id="e96" paint-order="stroke" stroke="white" stroke-width="7" stroke-linejoin="round"><text x="1962" y="1318.0" text-anchor="start" font-size="18" font-weight="400" fill="#087A53">3  후보/제약</text></g>
<g id="e98" paint-order="stroke" stroke="white" stroke-width="7" stroke-linejoin="round"><text x="1962" y="1428.0" text-anchor="start" font-size="18" font-weight="400" fill="#087A53">관계/미해결</text></g>
<g id="e99"><text x="2122" y="1498.0" text-anchor="start" font-size="18" font-weight="400" fill="#5B697B">적용기와 Engine: 코드/명시 규칙</text><text x="2122" y="1522.3" text-anchor="start" font-size="18" font-weight="400" fill="#5B697B">말뜻/조회 선택: Interpreter의 Omni</text><text x="2122" y="1546.6" text-anchor="start" font-size="18" font-weight="400" fill="#5B697B">상태 소유: Workspace Component</text></g>
<g id="e102" paint-order="stroke" stroke="white" stroke-width="7" stroke-linejoin="round"><text x="1367" y="1788.0" text-anchor="start" font-size="18" font-weight="400" fill="#087A53">4  의미/질문/근거 버전</text></g>
<g id="e104" paint-order="stroke" stroke="white" stroke-width="7" stroke-linejoin="round"><text x="1787" y="1858.0" text-anchor="start" font-size="18" font-weight="400" fill="#087A53">채택/실제 게시 기록</text></g>
<g id="e108" paint-order="stroke" stroke="white" stroke-width="7" stroke-linejoin="round"><text x="2032" y="1680.0" text-anchor="start" font-size="18" font-weight="400" fill="#087A53">자료 조회</text></g>
<g id="e110" paint-order="stroke" stroke="white" stroke-width="7" stroke-linejoin="round"><text x="2052" y="1758.0" text-anchor="start" font-size="18" font-weight="400" fill="#087A53">근거/변경</text></g>
<g id="e112" paint-order="stroke" stroke="white" stroke-width="7" stroke-linejoin="round"><text x="2082" y="1960.0" text-anchor="start" font-size="18" font-weight="400" fill="#087A53">Task 조회</text></g>
<g id="e114" paint-order="stroke" stroke="white" stroke-width="7" stroke-linejoin="round"><text x="2102" y="2038.0" text-anchor="start" font-size="18" font-weight="400" fill="#087A53">사실/변경</text></g>
<g id="e115"><text x="2122" y="2108.0" text-anchor="start" font-size="18" font-weight="400" fill="#5B697B">의미 구성 중 조회/변경 구독: Workspace</text><text x="2122" y="2132.3" text-anchor="start" font-size="18" font-weight="400" fill="#5B697B">실행 직전 검사: Request Controller</text><text x="2122" y="2156.6" text-anchor="start" font-size="18" font-weight="400" fill="#5B697B">원본 소유자는 양안 모두 동일</text></g>
<g id="e118" paint-order="stroke" stroke="white" stroke-width="7" stroke-linejoin="round"><text x="1367" y="2053.0" text-anchor="start" font-size="18" font-weight="400" fill="#263445">미해결: 질문 전달 요청</text></g>
<g id="e120" paint-order="stroke" stroke="white" stroke-width="7" stroke-linejoin="round"><text x="1787" y="2103.0" text-anchor="start" font-size="18" font-weight="400" fill="#263445">실제 게시 기록 반환</text></g>
<g id="e121"><text x="1342" y="2268.0" text-anchor="start" font-size="18" font-weight="400" fill="#5B697B">Response Manager → Interaction Manager: 질문 표시/음성; 실제 게시 기록 반환</text><text x="1342" y="2292.3" text-anchor="start" font-size="18" font-weight="400" fill="#5B697B">사용자 답변은 Interaction Manager → 상단 Request Controller로 새 입력</text></g>
<g id="e124" paint-order="stroke" stroke="white" stroke-width="7" stroke-linejoin="round"><text x="1377" y="548.0" text-anchor="start" font-size="18" font-weight="400" fill="#263445">발화/시점 전달; 신규/보완 관계는 미결정</text></g>
<g id="e126"><text x="1327" y="2388" text-anchor="start" font-size="23" font-weight="400" fill="#5B697B">유리: 명시한 조건을 유지하며 필요한 관계만 갱신</text><text x="1327" y="2427" text-anchor="start" font-size="23" font-weight="400" fill="#5B697B">대가: 변경 언어/의존성 설계; 표현 밖 뜻은 질문</text><text x="1327" y="2466" text-anchor="start" font-size="23" font-weight="400" fill="#5B697B">선택: 여러 번 보완하고 조건을 이어가는 대화</text></g>
<g id="e127"><text x="64" y="2532.0" text-anchor="start" font-size="22" font-weight="400" fill="#263445">공통 마무리: Request Controller 현재 검사 → Task Manager → Agent Gateway → Downstream Agent</text></g>
<g id="e128"><text x="64" y="2572.0" text-anchor="start" font-size="22" font-weight="400" fill="#263445">접수/결과 반환 → Response Manager → Interaction Manager의 실제 표시/음성. 미해결이면 실행 대신 질문.</text></g>
<g id="e129"><text x="64" y="2629.0" text-anchor="start" font-size="19" font-weight="400" fill="#5B697B">검정: 공통 / 파랑: A 고유 / 초록: B 고유. 실선: 요청/전달 / 점선: 결과. 네모: 이름 / 원통: 상태 / 육각형: 외부 의존.</text></g>
<g id="e130"><text x="64" y="2669.0" text-anchor="start" font-size="19" font-weight="400" fill="#5B697B">같은 이름의 반복 상자는 동일 Component. 비교 부분의 책임을 펼친 그림. 별도 process 표기가 없으면 논리 분해. 모델 가중치는 한 벌; 이익은 조건부 설계 가설, 미측정.</text></g>
<g id="e131"><text x="64" y="2709.0" text-anchor="start" font-size="19" font-weight="400" fill="#5B697B">양안의 응답 생성도 필요하면 Response Manager → Model Access → 같은 Omni를 사용한다. 사건도에 요청/반환을 함께 표시.</text></g>
</g></svg>
